<svg viewBox="0 0 16 16" xmlns="http://www.w3.org/2000/svg">
    <symbol viewBox="0 0 16 16" id="activity">
        <title>activity</title>
        <path d="M10,11.8L8.5,7.7l-1.6,3.7c-0.3,0.8-1.4,0.8-1.8,0.1L3.9,9l-1.1,1.6L1.2,9.4l2-3c0.4-0.6,1.4-0.6,1.7,0.1l1,2.1
	l1.7-4c0.3-0.8,1.5-0.8,1.8,0l1.6,4l2.1-5.9l1.8,0.6l-3,8.5C11.6,12.7,10.4,12.7,10,11.8z" />
    </symbol>
    <symbol viewBox="0 0 16 16" id="anchor">
        <title>anchor</title>
        <path d="M12,8v2.5c0,0.8-0.7,1.5-1.5,1.5S9,11.3,9,10.5V9h1c0.3,0,0.5-0.2,0.5-0.5S10.3,8,10,8H9V5.8c0.7-0.3,1.1-1,1.1-1.8
	c0-1.1-0.9-2-2-2c-1.1,0-2,0.9-2,2c0,0.7,0.4,1.3,0.9,1.7V8H6C5.7,8,5.5,8.2,5.5,8.5S5.7,9,6,9h1v1.5C7,11.3,6.3,12,5.5,12
	S4,11.3,4,10.5V8c-1.1,0-2,0.9-2,2v0.5C2,12.4,3.6,14,5.5,14c1,0,1.9-0.4,2.5-1.1c0.6,0.6,1.5,1.1,2.5,1.1c1.9,0,3.5-1.6,3.5-3.5V10
	C14,8.9,13.1,8,12,8z M8,3.5c0.3,0,0.5,0.2,0.5,0.5S8.3,4.5,8,4.5S7.5,4.3,7.5,4S7.7,3.5,8,3.5z" />
    </symbol>

    <symbol viewBox="0 0 16 16" id="attachment">
        <title>attachment</title>
        <path d="M9.2,1C7.5,1,6,2.5,6,4.2V10c0,1.1,0.9,2,2,2s2-0.9,2-2V5H8.5v5c0,0.3-0.2,0.5-0.5,0.5S7.5,10.3,7.5,10V4.2
	c0-1,0.8-1.8,1.8-1.8S11,3.3,11,4.2v6.2c0,1.7-1.3,3-3,3s-3-1.3-3-3V5H3.5v5.5C3.5,13,5.5,15,8,15s4.5-2,4.5-4.5V4.2
	C12.5,2.5,11,1,9.2,1z" />
    </symbol>
    <symbol viewBox="0 0 16 16" id="audio">
        <title>audio</title>
        <path d="M7.3,2.7L4,6H2v4h2l3.3,3.3C7.9,13.9,9,13.5,9,12.6V3.4C9,2.5,7.9,2.1,7.3,2.7z M13,3l-0.7,0.7C13.3,4.8,14,6.3,14,8
	s-0.7,3.2-1.8,4.2l0.7,0.7c1.3-1.3,2.1-3,2.1-5C15,6,14.2,4.3,13,3z M11.5,4.5l-0.7,0.7C11.6,5.9,12,6.9,12,8s-0.5,2.1-1.2,2.8
	l0.7,0.7C12.4,10.6,13,9.4,13,8S12.4,5.4,11.5,4.5z" />
    </symbol>

    <symbol viewBox="0 0 16 16" id="cart">
        <title>cart</title>
        <path d="M11,12c-0.6,0-1,0.4-1,1s0.4,1,1,1s1-0.4,1-1S11.6,12,11,12z M5,12c-0.6,0-1,0.4-1,1s0.4,1,1,1s1-0.4,1-1
	S5.6,12,5,12z M11,10H5V9h5.6c0.8,0,1.5-0.5,1.9-1.3L14,4H5V3c0-0.6-0.4-1-1-1H2v1h2v7c0,0.6,0.4,1,1,1h6h1C12,10.4,11.6,10,11,10z" />
    </symbol>
    <symbol viewBox="0 0 16 16" id="category">
        <title>category</title>
        <path d="M13,5H8L7.3,3.6C7.1,3.2,6.8,3,6.4,3H3C2.5,3,2,3.5,2,4v2v6c0,0.6,0.5,1,1,1h10c0.6,0,1-0.4,1-1V6C14,5.4,13.6,5,13,5z" />
    </symbol>
    <symbol viewBox="0 0 16 16" id="checkmark">
        <title>checkmark</title>
        <polygon points="13.3,3.3 6.5,10.1 3.7,7.3 2.3,8.7 6.5,12.9 14.7,4.7 " />
    </symbol>
    <symbol viewBox="0 0 16 16" id="close-alt">
        <title>close-alt</title>
        <polygon points="14.7,2.7 13.3,1.3 8,6.6 2.7,1.3 1.3,2.7 6.6,8 1.3,13.3 2.7,14.7 8,9.4 13.3,14.7 14.7,13.3 9.4,8 
	" />
    </symbol>
    <symbol viewBox="0 0 16 16" id="close">
        <title>close</title>
        <polygon points="12.7,4.7 11.3,3.3 8,6.6 4.7,3.3 3.3,4.7 6.6,8 3.3,11.3 4.7,12.7 8,9.4 11.3,12.7 12.7,11.3 9.4,8 
	" />
    </symbol>
    <symbol viewBox="0 0 16 16" id="code">
        <title>code</title>
        <polygon points="5.3,12.7 0.6,8 5.3,3.3 6.7,4.7 3.4,8 6.7,11.3 " />
        <polygon points="10.7,12.7 9.3,11.3 12.6,8 9.3,4.7 10.7,3.3 15.4,8 " />
    </symbol>
    <symbol viewBox="0 0 16 16" id="collapse">
        <title>collapse</title>
        <polygon points="8,4.6 1.3,11.3 2.7,12.7 8,7.4 13.3,12.7 14.7,11.3 " />
    </symbol>
    <symbol viewBox="0 0 16 16" id="cog">
        <title>cog</title>
        <path d="M13,8c0-0.4-0.1-0.8-0.1-1.1L14,6.1c0.4-0.3,0.5-0.9,0.3-1.3l-0.3-0.6c-0.3-0.5-0.8-0.6-1.3-0.4l-1.2,0.5
	C11,3.8,10.3,3.4,9.6,3.2L9.3,1.8C9.3,1.3,8.8,1,8.4,1H7.7c-0.5,0-0.9,0.4-1,0.9L6.5,3.2C5.8,3.5,5.2,3.8,4.6,4.3L3.4,3.8
	c-0.5-0.2-1,0-1.3,0.4L1.8,4.8C1.5,5.3,1.6,5.8,2,6.1l1.1,0.8C3.1,7.2,3,7.6,3,8c0,0.4,0.1,0.8,0.1,1.1L2,9.9
	c-0.4,0.3-0.5,0.9-0.3,1.3l0.3,0.6c0.3,0.5,0.8,0.6,1.3,0.4l1.2-0.5c0.5,0.5,1.2,0.9,1.9,1.1l0.3,1.4c0.1,0.5,0.5,0.8,1,0.8h0.7
	c0.5,0,1-0.4,1-0.9l0.1-1.3c0.7-0.2,1.4-0.6,1.9-1.1l1.2,0.5c0.5,0.2,1,0,1.3-0.4l0.3-0.6c0.2-0.4,0.1-1-0.3-1.3l-1.1-0.8
	C12.9,8.8,13,8.4,13,8z M8,10.5c-1.4,0-2.5-1.1-2.5-2.5S6.6,5.5,8,5.5s2.5,1.1,2.5,2.5S9.4,10.5,8,10.5z" />
    </symbol>
    <symbol viewBox="0 0 16 16" id="comment">
        <title>comment</title>
        <g>
            <path d="M12,4H4C2.9,4,2,4.9,2,6v8l2.4-2.4C4.8,11.2,5.3,11,5.8,11H12c1.1,0,2-0.9,2-2V6C14,4.9,13.1,4,12,4z" />
        </g>
    </symbol>

    <symbol viewBox="0 0 16 16" id="document">
        <title>document</title>
        <path d="M10,1H5C3.9,1,3,1.9,3,3v9c0,1.1,0.9,2,2,2h6c1.1,0,2-0.9,2-2V4L10,1z M11.5,12c0,0.3-0.2,0.5-0.5,0.5H5
	c-0.3,0-0.5-0.2-0.5-0.5V3c0-0.3,0.2-0.5,0.5-0.5h3V4c0,1.1,0.9,2,2,2h1.5V12z" />
    </symbol>
    <symbol viewBox="0 0 16 16" id="download">
        <title>download</title>
        <path d="M11,7H9V3H7v4H5l3,3L11,7z M3,11v2h10v-2H3z" />
    </symbol>
    <symbol viewBox="0 0 16 16" id="expand">
        <title>expand</title>
        <polygon points="8,12.7 1.3,6 2.7,4.6 8,9.9 13.3,4.6 14.7,6 " />
    </symbol>
    <symbol viewBox="0 0 16 16" id="help">
        <title>help</title>
        <path d="M8,2C4.7,2,2,4.7,2,8s2.7,6,6,6s6-2.7,6-6S11.3,2,8,2z M8,12c-0.6,0-1-0.4-1-1s0.4-1,1-1s1,0.4,1,1S8.6,12,8,12z M9.5,8.5
	C8.8,8.7,8.8,9.1,8.8,9.2H7.2c0-1,0.6-1.8,1.8-2.2c0.7-0.2,0.7-0.7,0.7-0.8c0-0.4-0.3-0.8-0.8-0.8H7c-0.4,0-0.8,0.3-0.8,0.8H4.8
	C4.8,5,5.8,4,7,4h2c1.2,0,2.2,1,2.2,2.2C11.2,7.3,10.6,8.1,9.5,8.5z" />
    </symbol>

    <symbol viewBox="0 0 16 16" id="home">
        <title>home</title>
        <path d="M7.4,3.5l-4,3.2C3.1,6.9,3,7.2,3,7.5V13h3.5v-2.5C6.5,9.7,7.2,9,8,9h0c0.8,0,1.5,0.7,1.5,1.5V13H13V7.5
	c0-0.3-0.1-0.6-0.4-0.8l-4-3.2C8.3,3.2,7.7,3.2,7.4,3.5z" />
    </symbol>
    <symbol viewBox="0 0 16 16" id="info">
        <title>info</title>
        <path d="M8,2C4.7,2,2,4.7,2,8s2.7,6,6,6c3.3,0,6-2.7,6-6S11.3,2,8,2z M8,4c0.6,0,1,0.4,1,1S8.6,6,8,6C7.4,6,7,5.6,7,5S7.4,4,8,4z
	 M10,12H6v-1h1.2V8h-1V7h2.5v4H10V12z" />
    </symbol>

    <symbol viewBox="0 0 16 16" id="key">
        <title>key</title>
        <path d="M15,7H8.9C8.4,5.3,6.9,4,5,4C2.8,4,1,5.8,1,8c0,2.2,1.8,4,4,4c1.9,0,3.4-1.3,3.9-3H12v2h2V9h1V7z M5,10c-1.1,0-2-0.9-2-2
	c0-1.1,0.9-2,2-2s2,0.9,2,2C7,9.1,6.1,10,5,10z" />
    </symbol>
    <symbol viewBox="0 0 16 16" id="link">
        <title>link</title>
        <path d="M13,4h-3C8.9,4,8,4.9,8,6v0.8H7V6c0-1.1-0.9-2-2-2H2C0.9,4,0,4.9,0,6v3c0,1.1,0.9,2,2,2h3c1.1,0,2-0.9,2-2V8.2h1V9
	c0,1.1,0.9,2,2,2h3c1.1,0,2-0.9,2-2V6C15,4.9,14.1,4,13,4z M5.5,9c0,0.3-0.2,0.5-0.5,0.5H2C1.7,9.5,1.5,9.3,1.5,9V6
	c0-0.3,0.2-0.5,0.5-0.5h3c0.3,0,0.5,0.2,0.5,0.5v0.8H5c-0.4,0-0.8,0.3-0.8,0.8S4.6,8.2,5,8.2h0.5V9z M13.5,9c0,0.3-0.2,0.5-0.5,0.5
	h-3C9.7,9.5,9.5,9.3,9.5,9V8.2H10c0.4,0,0.8-0.3,0.8-0.8S10.4,6.8,10,6.8H9.5V6c0-0.3,0.2-0.5,0.5-0.5h3c0.3,0,0.5,0.2,0.5,0.5V9z" />
    </symbol>

    <symbol viewBox="0 0 16 16" id="lock">
        <title>lock</title>
        <path d="M12,8V6c0-2.2-1.8-4-4-4S4,3.8,4,6v2C3.4,8,3,8.4,3,9v4c0,0.6,0.4,1,1,1h8c0.6,0,1-0.4,1-1V9C13,8.4,12.6,8,12,8z M6,8V6
	c0-1.1,0.9-2,2-2s2,0.9,2,2v2H6z" />
    </symbol>
    <symbol viewBox="0 0 16 16" id="mail">
        <title>mail</title>
        <g>
            <path d="M12,3H4C2.9,3,2,3.9,2,5v5c0,1.1,0.9,2,2,2h8c1.1,0,2-0.9,2-2V5C14,3.9,13.1,3,12,3z M13,6.2L8,9.1L3,6.2V5l5,2.9L13,5V6.2
		z" />
        </g>
    </symbol>
    <symbol viewBox="0 0 16 16" id="menu">
        <title>menu</title>
        <path d="M0,14h16v-2H0V14z M0,2v2h16V2H0z M0,9h16V7H0V9z" />
    </symbol>
    <symbol viewBox="0 0 16 16" id="microphone">
        <title>microphone</title>
        <path d="M8,10c1.1,0,2-0.9,2-2V4c0-1.1-0.9-2-2-2S6,2.9,6,4v4C6,9.1,6.9,10,8,10z M11,8c0,1.7-1.3,3-3,3S5,9.7,5,8H3
	c0,2.4,1.7,4.4,4,4.9V15h2v-2.1c2.3-0.5,4-2.5,4-4.9C13,8,11,8,11,8z" />
    </symbol>
    <symbol viewBox="0 0 16 16" id="minus">
        <title>minus</title>
        <rect x="3" y="7" width="10" height="2" />
    </symbol>

    <symbol viewBox="0 0 16 16" id="next">
        <title>next</title>
        <polygon points="3,7 9.6,7 7.3,4.7 8.7,3.3 13.4,8 8.7,12.7 7.3,11.3 9.6,9 3,9 " />
    </symbol>
    <symbol viewBox="0 0 16 16" id="notice">
        <title>notice</title>
        <path d="M8,2C4.7,2,2,4.7,2,8s2.7,6,6,6s6-2.7,6-6S11.3,2,8,2z M8,12c-0.6,0-1-0.4-1-1s0.4-1,1-1s1,0.4,1,1S8.6,12,8,12z M8.8,9H7.2
	L7,4h2L8.8,9z" />
    </symbol>
    <symbol viewBox="0 0 16 16" id="paintbrush">
        <title>paintbrush</title>
        <path d="M14.1,1.9c-0.6-0.6-1.5-0.6-2.1,0l-6,6L8.1,10l6-6C14.6,3.5,14.6,2.5,14.1,1.9z M6.5,9.7C5.7,8.8,4.6,8.6,3.8,9.1
	C3,9.5,2.6,10.4,2.6,11.3c-0.1,0.9-0.7,1.6-1.6,2c0.5,0.7,2.2,1.2,4.2,0.5S7.5,10.9,6.5,9.7z" />
    </symbol>

    <symbol viewBox="0 0 16 16" id="play">
        <title>play</title>
        <path d="M3,12.2V3.8C3,3,3.8,2.5,4.5,2.9l7.1,4.2c0.6,0.4,0.6,1.3,0,1.7l-7.1,4.2C3.8,13.5,3,13,3,12.2z" />
    </symbol>

    <symbol viewBox="0 0 16 16" id="plus">
        <title>plus</title>
        <polygon points="13,7 9,7 9,3 7,3 7,7 3,7 3,9 7,9 7,13 9,13 9,9 13,9 " />
    </symbol>
    <symbol viewBox="0 0 16 16" id="previous">
        <title>previous</title>
        <polygon points="13,7 6.4,7 8.7,4.7 7.3,3.3 2.6,8 7.3,12.7 8.7,11.3 6.4,9 13,9 " />
    </symbol>

    <symbol viewBox="0 0 16 16" id="quote">
        <title>quote</title>
        <path d="M2,9h3c0,1.1-0.9,2-2,2v2c2.2,0,4-1.8,4-4V4H2V9z M9,4v5h3c0,1.1-0.9,2-2,2v2c2.2,0,4-1.8,4-4V4H9z" />
    </symbol>

    <symbol viewBox="0 0 16 16" id="reply">
        <title>reply</title>
        <path d="M10,6H8V3L3,8l5,5v-3h2c1,0,2,0.4,2.8,1.2l1.2,1.2V10C14,7.8,12.2,6,10,6z" />
    </symbol>

    <symbol viewBox="0 0 16 16" id="search">
        <title>search</title>
        <path d="M14.7,13.3L11,9.6c0.6-0.9,1-2,1-3.1C12,3.5,9.5,1,6.5,1S1,3.5,1,6.5S3.5,12,6.5,12c1.2,0,2.2-0.4,3.1-1l3.7,3.7L14.7,13.3z
	 M2.5,6.5c0-2.2,1.8-4,4-4s4,1.8,4,4s-1.8,4-4,4S2.5,8.7,2.5,6.5z" />
    </symbol>

    <symbol viewBox="0 0 16 16" id="share">
        <title>share</title>
        <path d="M7,4.4V10h2V4.4l1.1,1.1l1.4-1.4L8,0.6L4.5,4.1l1.4,1.4L7,4.4z M12,6h-2v1.5h2c0.3,0,0.5,0.2,0.5,0.5v4
	c0,0.3-0.2,0.5-0.5,0.5H4c-0.3,0-0.5-0.2-0.5-0.5V8c0-0.3,0.2-0.5,0.5-0.5h2V6H4C2.9,6,2,6.9,2,8v4c0,1.1,0.9,2,2,2h8
	c1.1,0,2-0.9,2-2V8C14,6.9,13.1,6,12,6z" />
    </symbol>

    <symbol viewBox="0 0 16 16" id="sitemap">
        <title>sitemap</title>
        <path d="M14,11.3V10c0-1.7-1.3-3-3-3H9V4.7c0.6-0.3,1-1,1-1.7c0-1.1-0.9-2-2-2S6,1.9,6,3c0,0.7,0.4,1.4,1,1.7V7H5c-1.7,0-3,1.3-3,3
	v1.3c-0.6,0.3-1,1-1,1.7c0,1.1,0.9,2,2,2s2-0.9,2-2c0-0.7-0.4-1.4-1-1.7V10c0-0.6,0.4-1,1-1h2v2.3c-0.6,0.3-1,1-1,1.7
	c0,1.1,0.9,2,2,2s2-0.9,2-2c0-0.7-0.4-1.4-1-1.7V9h2c0.6,0,1,0.4,1,1v1.3c-0.6,0.3-1,1-1,1.7c0,1.1,0.9,2,2,2s2-0.9,2-2
	C15,12.3,14.6,11.6,14,11.3z M8,2.2c0.4,0,0.8,0.3,0.8,0.8S8.4,3.8,8,3.8C7.6,3.8,7.2,3.4,7.2,3S7.6,2.2,8,2.2z M3,13.8
	c-0.4,0-0.8-0.3-0.8-0.8s0.3-0.8,0.8-0.8s0.8,0.3,0.8,0.8S3.4,13.8,3,13.8z M8,13.8c-0.4,0-0.8-0.3-0.8-0.8s0.3-0.8,0.8-0.8
	c0.4,0,0.8,0.3,0.8,0.8S8.4,13.8,8,13.8z M13,13.8c-0.4,0-0.8-0.3-0.8-0.8s0.3-0.8,0.8-0.8s0.8,0.3,0.8,0.8S13.4,13.8,13,13.8z" />
    </symbol>

    <symbol viewBox="0 0 16 16" id="status">
        <title>status</title>
        <path d="M11,5c0-1.7-1.3-3-3-3S5,3.3,5,5c0,1.3,0.8,2.4,2,2.8V14l2-1V7.8C10.2,7.4,11,6.3,11,5z" />
    </symbol>

    <symbol viewBox="0 0 16 16" id="subscribe">
        <title>subscribe</title>
        <path d="M15,9h-5c-0.6,0-1,0.4-1,1v5c0,0.6,0.4,1,1,1h5c0.6,0,1-0.4,1-1v-5C16,9.4,15.6,9,15,9z M15,13h-2v2h-1v-2h-2v-1h2v-2h1v2h2
	V13z M12,8V5c0-1.1-0.9-2-2-2H2C0.9,3,0,3.9,0,5v5c0,1.1,0.9,2,2,2h6v-2c0-1.2,0.8-2,2-2H12z M6,9.1L1,6.2V5l5,2.9L11,5v1.2L6,9.1z" />
    </symbol>

    <symbol viewBox="0 0 16 16" id="user">
        <title>user</title>
        <path d="M8,8c1.7,0,3-1.3,3-3S9.7,2,8,2S5,3.3,5,5S6.3,8,8,8z M10,9H6c-1.7,0-3,1.3-3,3v2h10v-2C13,10.3,11.7,9,10,9z" />
    </symbol>
    <symbol viewBox="0 0 16 16" id="video">
        <title>video</title>
        <path d="M12,4v1h-1V4H5v1H4V4H2v9h2v-1h1v1h6v-1h1v1h2V4H12z M5,11H4v-1h1V11z M5,9H4V8h1V9z M5,7H4V6h1V7z M12,11h-1v-1h1V11z
	 M12,9h-1V8h1V9z M12,7h-1V6h1V7z" />
    </symbol>
    <symbol viewBox="0 0 16 16" id="videocamera">
        <title>videocamera</title>
        <path d="M10,7V6c0-1.1-0.9-2-2-2H4C2.9,4,2,4.9,2,6v4c0,1.1,0.9,2,2,2h4c1.1,0,2-0.9,2-2V9l2.3,2.3c0.6,0.6,1.7,0.2,1.7-0.7V5.4
	c0-0.9-1.1-1.3-1.7-0.7L10,7z" />
    </symbol>
    <symbol viewBox="0 0 16 16" id="warning">
        <title>warning</title>
        <path d="M15.6,11.3L9.7,1.6c-0.9-1.5-2.4-1.5-3.3,0l-5.9,9.7c-1,1.5-0.3,2.7,1.4,2.7h12.2C15.8,14,16.5,12.8,15.6,11.3z M8,12
	c-0.6,0-1-0.4-1-1s0.4-1,1-1s1,0.4,1,1S8.6,12,8,12z M8.8,9H7.2L7,4h2L8.8,9z" />
    </symbol>

</svg>
