<svg style="position: absolute; width: 0; height: 0; overflow: hidden;" version="1.1" xmlns="http://www.w3.org/2000/svg" xmlns:xlink="http://www.w3.org/1999/xlink">
    <metadata>
        Social Icons, based on Brand Icons from Font Awesome v4.7 (http://fontawesome.io/)
        Font Awesome font is licensed under the SIL OFL 1.1 (http://scripts.sil.org/OFL)
        Created with IcoMoon (https://icomoon.io/app/)
    </metadata>
    <defs>
        <symbol id="icon-twitter" viewBox="0 0 13 14">
            <title>twitter</title>
            <path d="M12.656 3.188c-0.344 0.5-0.773 0.945-1.266 1.305 0.008 0.109 0.008 0.219 0.008 0.328 0 3.336-2.539 7.18-7.18 7.18-1.43 0-2.758-0.414-3.875-1.133 0.203 0.023 0.398 0.031 0.609 0.031 1.18 0 2.266-0.398 3.133-1.078-1.109-0.023-2.039-0.75-2.359-1.75 0.156 0.023 0.312 0.039 0.477 0.039 0.227 0 0.453-0.031 0.664-0.086-1.156-0.234-2.023-1.25-2.023-2.477v-0.031c0.336 0.187 0.727 0.305 1.141 0.32-0.68-0.453-1.125-1.227-1.125-2.102 0-0.469 0.125-0.898 0.344-1.273 1.242 1.531 3.109 2.531 5.203 2.641-0.039-0.187-0.062-0.383-0.062-0.578 0-1.391 1.125-2.523 2.523-2.523 0.727 0 1.383 0.305 1.844 0.797 0.57-0.109 1.117-0.32 1.602-0.609-0.187 0.586-0.586 1.078-1.109 1.391 0.508-0.055 1-0.195 1.453-0.391z"></path>
        </symbol>
        <symbol id="icon-facebook" viewBox="0 0 8 14">
            <title>facebook</title>
            <path d="M7.492 0.094v2.062h-1.227c-0.961 0-1.141 0.461-1.141 1.125v1.477h2.289l-0.305 2.313h-1.984v5.93h-2.391v-5.93h-1.992v-2.313h1.992v-1.703c0-1.977 1.211-3.055 2.977-3.055 0.844 0 1.57 0.062 1.781 0.094z"></path>
        </symbol>
        <symbol id="icon-feed" viewBox="0 0 11 14">
            <title>feed</title>
            <path d="M3 10.5c0 0.828-0.672 1.5-1.5 1.5s-1.5-0.672-1.5-1.5 0.672-1.5 1.5-1.5 1.5 0.672 1.5 1.5zM7 11.461c0.008 0.141-0.039 0.273-0.133 0.375-0.094 0.109-0.227 0.164-0.367 0.164h-1.055c-0.258 0-0.469-0.195-0.492-0.453-0.227-2.383-2.117-4.273-4.5-4.5-0.258-0.023-0.453-0.234-0.453-0.492v-1.055c0-0.141 0.055-0.273 0.164-0.367 0.086-0.086 0.211-0.133 0.336-0.133h0.039c1.664 0.133 3.234 0.859 4.414 2.047 1.187 1.18 1.914 2.75 2.047 4.414zM11 11.477c0.008 0.133-0.039 0.266-0.141 0.367-0.094 0.102-0.219 0.156-0.359 0.156h-1.117c-0.266 0-0.484-0.203-0.5-0.469-0.258-4.539-3.875-8.156-8.414-8.422-0.266-0.016-0.469-0.234-0.469-0.492v-1.117c0-0.141 0.055-0.266 0.156-0.359 0.094-0.094 0.219-0.141 0.344-0.141h0.023c2.734 0.141 5.305 1.289 7.242 3.234 1.945 1.937 3.094 4.508 3.234 7.242z"></path>
        </symbol>
        <symbol id="icon-flickr" viewBox="0 0 12 14">
            <title>flickr</title>
            <path d="M9.75 1c1.242 0 2.25 1.008 2.25 2.25v7.5c0 1.242-1.008 2.25-2.25 2.25h-7.5c-1.242 0-2.25-1.008-2.25-2.25v-7.5c0-1.242 1.008-2.25 2.25-2.25h7.5zM5.453 7c0-0.914-0.742-1.656-1.656-1.656s-1.656 0.742-1.656 1.656 0.742 1.656 1.656 1.656 1.656-0.742 1.656-1.656zM9.859 7c0-0.914-0.742-1.656-1.656-1.656s-1.656 0.742-1.656 1.656 0.742 1.656 1.656 1.656 1.656-0.742 1.656-1.656z"></path>
        </symbol>
        <symbol id="icon-google-plus" viewBox="0 0 18 14">
            <title>google-plus</title>
            <path d="M11.227 7.133c0 3.273-2.195 5.594-5.5 5.594-3.164 0-5.727-2.563-5.727-5.727s2.563-5.727 5.727-5.727c1.547 0 2.836 0.563 3.836 1.5l-1.555 1.492c-0.422-0.406-1.164-0.883-2.281-0.883-1.953 0-3.547 1.617-3.547 3.617s1.594 3.617 3.547 3.617c2.266 0 3.117-1.633 3.25-2.469h-3.25v-1.969h5.406c0.055 0.289 0.094 0.578 0.094 0.953zM18 6.18v1.641h-1.633v1.633h-1.641v-1.633h-1.633v-1.641h1.633v-1.633h1.641v1.633h1.633z"></path>
        </symbol>
        <symbol id="icon-youtube" viewBox="0 0 12 14">
            <title>youtube</title>
            <path d="M7.586 9.719v1.648c0 0.352-0.102 0.523-0.305 0.523-0.117 0-0.234-0.055-0.352-0.172v-2.352c0.117-0.117 0.234-0.172 0.352-0.172 0.203 0 0.305 0.18 0.305 0.523zM10.227 9.727v0.359h-0.703v-0.359c0-0.352 0.117-0.531 0.352-0.531s0.352 0.18 0.352 0.531zM2.68 8.023h0.836v-0.734h-2.438v0.734h0.82v4.445h0.781v-4.445zM4.93 12.469h0.695v-3.859h-0.695v2.953c-0.156 0.219-0.305 0.328-0.445 0.328-0.094 0-0.148-0.055-0.164-0.164-0.008-0.023-0.008-0.109-0.008-0.273v-2.844h-0.695v3.055c0 0.273 0.023 0.453 0.062 0.57 0.062 0.195 0.227 0.289 0.453 0.289 0.25 0 0.516-0.156 0.797-0.477v0.422zM8.281 11.313v-1.539c0-0.359-0.016-0.617-0.070-0.773-0.086-0.289-0.281-0.438-0.555-0.438-0.258 0-0.5 0.141-0.727 0.422v-1.695h-0.695v5.18h0.695v-0.375c0.234 0.289 0.477 0.43 0.727 0.43 0.273 0 0.469-0.148 0.555-0.43 0.055-0.164 0.070-0.422 0.070-0.781zM10.922 11.234v-0.102h-0.711c0 0.281-0.008 0.438-0.016 0.477-0.039 0.187-0.141 0.281-0.312 0.281-0.242 0-0.359-0.18-0.359-0.539v-0.68h1.398v-0.805c0-0.414-0.070-0.711-0.211-0.906-0.203-0.266-0.477-0.398-0.828-0.398-0.359 0-0.633 0.133-0.836 0.398-0.148 0.195-0.219 0.492-0.219 0.906v1.352c0 0.414 0.078 0.719 0.227 0.906 0.203 0.266 0.477 0.398 0.844 0.398s0.656-0.141 0.844-0.414c0.086-0.125 0.148-0.266 0.164-0.422 0.016-0.070 0.016-0.227 0.016-0.453zM6.172 4.102v-1.641c0-0.359-0.102-0.539-0.336-0.539-0.227 0-0.336 0.18-0.336 0.539v1.641c0 0.359 0.109 0.547 0.336 0.547 0.234 0 0.336-0.187 0.336-0.547zM11.789 9.969c0 0.898-0.008 1.859-0.203 2.734-0.148 0.617-0.648 1.070-1.25 1.133-1.438 0.164-2.891 0.164-4.336 0.164s-2.898 0-4.336-0.164c-0.602-0.062-1.109-0.516-1.25-1.133-0.203-0.875-0.203-1.836-0.203-2.734v0c0-0.906 0.008-1.859 0.203-2.734 0.148-0.617 0.648-1.070 1.258-1.141 1.43-0.156 2.883-0.156 4.328-0.156s2.898 0 4.336 0.156c0.602 0.070 1.109 0.523 1.25 1.141 0.203 0.875 0.203 1.828 0.203 2.734zM3.992 0h0.797l-0.945 3.117v2.117h-0.781v-2.117c-0.070-0.383-0.227-0.93-0.477-1.656-0.172-0.484-0.344-0.977-0.508-1.461h0.828l0.555 2.055zM6.883 2.602v1.367c0 0.414-0.070 0.727-0.219 0.922-0.195 0.266-0.469 0.398-0.828 0.398-0.352 0-0.625-0.133-0.82-0.398-0.148-0.203-0.219-0.508-0.219-0.922v-1.367c0-0.414 0.070-0.719 0.219-0.914 0.195-0.266 0.469-0.398 0.82-0.398 0.359 0 0.633 0.133 0.828 0.398 0.148 0.195 0.219 0.5 0.219 0.914zM9.5 1.336v3.898h-0.711v-0.43c-0.281 0.328-0.547 0.484-0.805 0.484-0.227 0-0.391-0.094-0.461-0.289-0.039-0.117-0.062-0.305-0.062-0.586v-3.078h0.711v2.867c0 0.164 0 0.258 0.008 0.273 0.016 0.109 0.070 0.172 0.164 0.172 0.141 0 0.289-0.109 0.445-0.336v-2.977h0.711z"></path>
        </symbol>
        <symbol id="icon-instagram" viewBox="0 0 12 14">
            <title>instagram</title>
            <path d="M8 7c0-1.102-0.898-2-2-2s-2 0.898-2 2 0.898 2 2 2 2-0.898 2-2zM9.078 7c0 1.703-1.375 3.078-3.078 3.078s-3.078-1.375-3.078-3.078 1.375-3.078 3.078-3.078 3.078 1.375 3.078 3.078zM9.922 3.797c0 0.398-0.32 0.719-0.719 0.719s-0.719-0.32-0.719-0.719 0.32-0.719 0.719-0.719 0.719 0.32 0.719 0.719zM6 2.078c-0.875 0-2.75-0.070-3.539 0.242-0.273 0.109-0.477 0.242-0.688 0.453s-0.344 0.414-0.453 0.688c-0.312 0.789-0.242 2.664-0.242 3.539s-0.070 2.75 0.242 3.539c0.109 0.273 0.242 0.477 0.453 0.688s0.414 0.344 0.688 0.453c0.789 0.312 2.664 0.242 3.539 0.242s2.75 0.070 3.539-0.242c0.273-0.109 0.477-0.242 0.688-0.453s0.344-0.414 0.453-0.688c0.312-0.789 0.242-2.664 0.242-3.539s0.070-2.75-0.242-3.539c-0.109-0.273-0.242-0.477-0.453-0.688s-0.414-0.344-0.688-0.453c-0.789-0.312-2.664-0.242-3.539-0.242zM12 7c0 0.828 0.008 1.648-0.039 2.477-0.047 0.961-0.266 1.812-0.969 2.516s-1.555 0.922-2.516 0.969c-0.828 0.047-1.648 0.039-2.477 0.039s-1.648 0.008-2.477-0.039c-0.961-0.047-1.812-0.266-2.516-0.969s-0.922-1.555-0.969-2.516c-0.047-0.828-0.039-1.648-0.039-2.477s-0.008-1.648 0.039-2.477c0.047-0.961 0.266-1.812 0.969-2.516s1.555-0.922 2.516-0.969c0.828-0.047 1.648-0.039 2.477-0.039s1.648-0.008 2.477 0.039c0.961 0.047 1.812 0.266 2.516 0.969s0.922 1.555 0.969 2.516c0.047 0.828 0.039 1.648 0.039 2.477z"></path>
        </symbol>
        <symbol id="icon-linkedin" viewBox="0 0 12 14">
            <title>linkedin</title>
            <path d="M2.727 4.883v7.742h-2.578v-7.742h2.578zM2.891 2.492c0.008 0.742-0.555 1.336-1.453 1.336v0h-0.016c-0.867 0-1.422-0.594-1.422-1.336 0-0.758 0.578-1.336 1.453-1.336 0.883 0 1.43 0.578 1.438 1.336zM12 8.187v4.437h-2.57v-4.141c0-1.039-0.375-1.75-1.305-1.75-0.711 0-1.133 0.477-1.32 0.937-0.062 0.172-0.086 0.398-0.086 0.633v4.32h-2.57c0.031-7.016 0-7.742 0-7.742h2.57v1.125h-0.016c0.336-0.531 0.945-1.305 2.336-1.305 1.695 0 2.961 1.109 2.961 3.484z"></path>
        </symbol>
        <symbol id="icon-wordpress" viewBox="0 0 14 14">
            <title>wordpress</title>
            <path d="M0.992 7c0-0.867 0.187-1.695 0.523-2.445l2.867 7.852c-2.008-0.977-3.391-3.031-3.391-5.406zM11.055 6.695c0 0.516-0.211 1.109-0.461 1.945l-0.594 2-2.172-6.453s0.359-0.023 0.688-0.062c0.32-0.039 0.281-0.516-0.039-0.492-0.977 0.070-1.602 0.078-1.602 0.078s-0.586-0.008-1.578-0.078c-0.328-0.023-0.367 0.469-0.039 0.492 0.305 0.031 0.625 0.062 0.625 0.062l0.937 2.563-1.313 3.938-2.188-6.5s0.359-0.023 0.688-0.062c0.32-0.039 0.281-0.516-0.039-0.492-0.969 0.070-1.602 0.078-1.602 0.078-0.109 0-0.242-0.008-0.383-0.008 1.070-1.633 2.914-2.711 5.016-2.711 1.563 0 2.984 0.602 4.055 1.578h-0.078c-0.586 0-1.008 0.508-1.008 1.062 0 0.492 0.289 0.906 0.594 1.406 0.234 0.398 0.492 0.914 0.492 1.656zM7.102 7.523l1.852 5.055c0.008 0.031 0.023 0.062 0.039 0.086-0.625 0.219-1.289 0.344-1.992 0.344-0.586 0-1.156-0.086-1.695-0.25zM12.266 4.117c0.469 0.859 0.742 1.836 0.742 2.883 0 2.219-1.203 4.148-2.992 5.188l1.836-5.297c0.305-0.875 0.461-1.547 0.461-2.156 0-0.219-0.016-0.422-0.047-0.617zM7 0c3.859 0 7 3.141 7 7s-3.141 7-7 7-7-3.141-7-7 3.141-7 7-7zM7 13.68c3.68 0 6.68-3 6.68-6.68s-3-6.68-6.68-6.68-6.68 3-6.68 6.68 3 6.68 6.68 6.68z"></path>
        </symbol>
        <symbol id="icon-pinterest-p" viewBox="0 0 10 14">
            <title>pinterest-p</title>
            <path d="M0 4.664c0-2.883 2.641-4.664 5.312-4.664 2.453 0 4.687 1.688 4.687 4.273 0 2.43-1.242 5.125-4.008 5.125-0.656 0-1.484-0.328-1.805-0.937-0.594 2.352-0.547 2.703-1.859 4.5l-0.109 0.039-0.070-0.078c-0.047-0.492-0.117-0.977-0.117-1.469 0-1.594 0.734-3.898 1.094-5.445-0.195-0.398-0.25-0.883-0.25-1.32 0-0.789 0.547-1.789 1.438-1.789 0.656 0 1.008 0.5 1.008 1.117 0 1.016-0.688 1.969-0.688 2.953 0 0.672 0.555 1.141 1.203 1.141 1.797 0 2.352-2.594 2.352-3.977 0-1.852-1.313-2.859-3.086-2.859-2.062 0-3.656 1.484-3.656 3.578 0 1.008 0.617 1.523 0.617 1.766 0 0.203-0.148 0.922-0.406 0.922-0.039 0-0.094-0.016-0.133-0.023-1.117-0.336-1.523-1.828-1.523-2.852z"></path>
        </symbol>
        <symbol id="icon-vk" viewBox="0 0 15 14">
            <title>vk</title>
            <path d="M14.977 4.063c0.117 0.32-0.25 1.070-1.172 2.297-1.516 2.016-1.68 1.828-0.43 2.992 1.203 1.117 1.453 1.656 1.492 1.727 0 0 0.5 0.875-0.555 0.883l-2 0.031c-0.43 0.086-1-0.305-1-0.305-0.75-0.516-1.453-1.852-2-1.68 0 0-0.563 0.18-0.547 1.383 0.008 0.258-0.117 0.398-0.117 0.398s-0.141 0.148-0.414 0.172h-0.898c-1.977 0.125-3.719-1.695-3.719-1.695s-1.906-1.969-3.578-5.898c-0.109-0.258 0.008-0.383 0.008-0.383s0.117-0.148 0.445-0.148l2.141-0.016c0.203 0.031 0.344 0.141 0.344 0.141s0.125 0.086 0.187 0.25c0.352 0.875 0.805 1.672 0.805 1.672 0.781 1.609 1.313 1.883 1.617 1.719 0 0 0.398-0.242 0.312-2.188-0.031-0.703-0.227-1.023-0.227-1.023-0.18-0.242-0.516-0.312-0.664-0.336-0.117-0.016 0.078-0.297 0.336-0.422 0.383-0.187 1.062-0.195 1.867-0.187 0.633 0.008 0.813 0.047 1.055 0.102 0.742 0.18 0.492 0.867 0.492 2.523 0 0.531-0.102 1.273 0.281 1.516 0.164 0.109 0.57 0.016 1.57-1.688 0 0 0.469-0.813 0.836-1.758 0.062-0.172 0.195-0.242 0.195-0.242s0.125-0.070 0.297-0.047l2.25-0.016c0.68-0.086 0.789 0.227 0.789 0.227z"></path>
        </symbol>
        <symbol id="icon-vimeo" viewBox="0 0 14 14">
            <title>vimeo</title>
            <path d="M13.352 4.047c-0.055 1.234-0.922 2.93-2.594 5.086-1.734 2.242-3.188 3.367-4.391 3.367-0.742 0-1.367-0.688-1.875-2.055-0.344-1.25-0.688-2.508-1.031-3.766-0.375-1.367-0.789-2.047-1.227-2.047-0.094 0-0.422 0.195-0.992 0.594l-0.602-0.766c0.625-0.555 1.242-1.117 1.859-1.656 0.828-0.734 1.461-1.102 1.883-1.141 0.992-0.094 1.594 0.578 1.828 2.023 0.242 1.563 0.422 2.539 0.516 2.914 0.289 1.297 0.594 1.945 0.937 1.945 0.266 0 0.664-0.414 1.203-1.258 0.531-0.844 0.813-1.484 0.852-1.922 0.070-0.727-0.211-1.086-0.852-1.086-0.305 0-0.617 0.070-0.945 0.203 0.625-2.047 1.82-3.039 3.586-2.984 1.305 0.039 1.922 0.891 1.844 2.547z"></path>
        </symbol>
        <symbol id="icon-star" viewBox="0 0 13 14">
            <title>star</title>
            <path d="M13 5.055c0 0.141-0.102 0.273-0.203 0.375l-2.836 2.766 0.672 3.906c0.008 0.055 0.008 0.102 0.008 0.156 0 0.203-0.094 0.391-0.32 0.391-0.109 0-0.219-0.039-0.312-0.094l-3.508-1.844-3.508 1.844c-0.102 0.055-0.203 0.094-0.312 0.094-0.227 0-0.328-0.187-0.328-0.391 0-0.055 0.008-0.102 0.016-0.156l0.672-3.906-2.844-2.766c-0.094-0.102-0.195-0.234-0.195-0.375 0-0.234 0.242-0.328 0.438-0.359l3.922-0.57 1.758-3.555c0.070-0.148 0.203-0.32 0.383-0.32s0.312 0.172 0.383 0.32l1.758 3.555 3.922 0.57c0.187 0.031 0.438 0.125 0.438 0.359z"></path>
        </symbol>
    </defs>
</svg>
